<svg id="Layer_9" data-name="Layer 9" xmlns="http://www.w3.org/2000/svg" viewBox="0 0 580.93992 580.99979"><defs><style>.cls-1{fill:none;stroke:#e0e0e0;stroke-linecap:round;stroke-linejoin:round;}</style></defs><title>button</title><polyline class="cls-1" points="298.736 270.918 580.385 108.308 299.826 271.979 580.386 109.998 301.231 273.347 580.386 112.177 302.014 274.345 580.386 113.627 296.782 279.604 580.386 115.866 292.159 284.252 580.387 117.844 288.484 287.947 580.387 119.416 286.466 291.104 580.387 121.409 287.255 291.889 580.387 122.649 288.636 293.263 580.387 124.82 289.651 294.272 580.388 126.415 290.756 295.371 580.388 128.152 291.736 296.346 580.388 129.692 292.652 297.258 580.388 131.133 293.403 298.004 580.388 132.313 294.77 299.364 580.389 134.463 295.588 300.178 580.389 135.748 296.532 301.117 580.389 137.232 297.694 302.273 580.389 139.059 298.456 303.031 580.389 140.257 299.592 304.161 580.389 142.043 300.404 304.969 580.39 143.319 301.64 306.199 580.39 145.263 299.224 309.669 580.39 147.338"/><polyline class="cls-1" points="0.5 0.849 1 0.56 0.5 2.294 3.503 0.56 0.5 4.391 7.137 0.559 0.5 5.613 9.254 0.559 0.5 7.052 11.747 0.559 0.5 8.438 14.148 0.559 0.5 9.828 16.555 0.558 0.5 11.554 19.546 0.558 0.5 13.701 23.264 0.558 0.5 15.31 26.053 0.557 0.5 16.96 28.91 0.557 0.5 18.747 32.007 0.557 0.5 20.983 35.879 0.556 0.5 22.791 39.012 0.556 0.5 23.98 41.072 0.556 0.5 25.601 43.881 0.556 0.5 27.541 47.24 0.555 0.5 29.791 51.138 0.555 0.5 31.891 54.777 0.554 0.5 33.089 56.852 0.554 0.5 35.164 60.447 0.554 0.5 37.136 63.863 0.553 0.5 39.188 67.417 0.553 0.5 40.658 69.963 0.553 0.5 42.744 73.579 0.552 0.5 44.251 76.188 0.552 0.5 45.505 78.36 0.552 0.5 46.715 80.457 0.552 0.5 48.805 84.078 0.551 0.5 50.761 87.467 0.551 0.5 52.879 91.135 0.551 0.5 54.639 94.184 0.55 0.5 55.799 96.195 0.55 0.5 57.833 99.717 0.55 0.5 59.47 102.553 0.549 0.5 60.855 104.953 0.549 0.5 62.863 108.432 0.549 0.5 65.063 112.243 0.548 0.5 66.426 114.603 0.548 0.5 68.378 117.985 0.548 0.5 69.955 120.717 0.548 0.5 71.312 123.067 0.547 0.5 72.827 125.692 0.547 0.5 74.357 128.342 0.547 0.5 76.313 131.732 0.546 0.5 78.467 135.464 0.546 0.5 80.253 138.556 0.546 0.5 81.656 140.987 0.545 0.5 83.174 143.618 0.545 0.5 85.458 147.575 0.545 0.5 87.396 150.931 0.544 0.5 89.658 154.85 0.544 0.5 91.477 158.001 0.544 0.5 93.152 160.904 0.543 0.5 94.824 163.799 0.543 0.5 96.704 167.056 0.543 0.5 98.428 170.042 0.542 0.5 100.243 173.186 0.542 0.5 102.327 176.796 0.542 0.5 103.714 179.199 0.542 0.5 105.314 181.973 0.541 0.5 107.011 184.912 0.541 0.5 108.279 187.107 0.541 0.5 109.543 189.299 0.54 0.5 111.28 192.308 0.54 0.5 112.549 194.505 0.54 0.5 113.947 196.927 0.54 0.5 116.204 200.837 0.539 0.5 117.855 203.697 0.539 0.5 119.725 206.936 0.539 0.5 121.098 209.315 0.538 0.5 122.654 212.01 0.538 0.5 124.445 215.113 0.538 0.5 126.272 218.279 0.537 0.5 127.852 221.017 0.537 0.5 129.628 224.093 0.537 0.5 131.21 226.833 0.537 0.5 133.312 230.475 0.536 0.5 135.112 233.592 0.536 0.5 137.394 237.546 0.535 0.5 139.628 241.416 0.535 0.5 141.307 244.325 0.535 0.5 142.805 246.92 0.534 0.5 144.739 250.271 0.534 0.5 146.098 252.624 0.534 0.5 148.319 256.471 0.534 0.5 150.301 259.905 0.533 0.5 151.589 262.137 0.533 0.5 153.244 265.004 0.533 0.5 154.908 267.887 0.532 0.5 156.11 269.969 0.532 0.5 158.255 273.685 0.532 0.5 160.494 277.563 0.531 0.5 162.558 281.14 0.531 0.5 164.016 283.665 0.531 0.5 165.734 286.641 0.53 0.5 167.535 289.76 0.53 0.5 169.657 293.438 0.53 0.5 170.826 295.462 0.529 0.5 172.077 297.63 0.529 0.5 173.879 300.752 0.529 0.5 175.891 304.237 0.529 0.5 177.238 306.571 0.528 0.5 179.354 310.236 0.528 0.5 181.3 313.607 0.528 0.5 182.632 315.914 0.527 0.5 184.036 318.348 0.527 0.5 186.312 322.29 0.527 0.5 187.839 324.935 0.526 0.5 189.475 327.769 0.526 0.5 191.706 331.634 0.526 0.5 193.673 335.041 0.525 0.5 194.884 337.14 0.525 0.5 196.184 339.391 0.525 0.5 197.743 342.093 0.525 0.5 199.18 344.581 0.524 0.5 200.712 347.235 0.524 0.5 202.959 351.128 0.524 0.5 204.839 354.385 0.523 0.5 206.744 357.686 0.523 0.5 208.63 360.952 0.523 0.5 209.924 363.194 0.522 0.5 211.971 366.741 0.522 0.5 213.818 369.94 0.522 0.5 215.909 373.563 0.521 0.5 217.706 376.676 0.521 0.5 219.788 380.283 0.521 0.5 221.825 383.811 0.52 0.5 224.038 387.644 0.52 0.5 226.232 391.446 0.52 0.5 227.796 394.154 0.519 0.5 230.039 398.04 0.519 0.5 231.588 400.725 0.519 0.5 233.342 403.762 0.518 0.5 234.804 406.296 0.518 0.5 236.657 409.506 0.518 0.5 238.397 412.519 0.517 0.5 240.437 416.054 0.517 0.5 241.817 418.445 0.517 0.5 242.974 420.449 0.517 0.5 245.145 424.21 0.516 0.5 246.858 427.176 0.516 0.5 248.88 430.679 0.515 0.5 250.616 433.688 0.515 0.5 252.51 436.969 0.515 0.5 253.76 439.133 0.515 0.5 255.181 441.596 0.514 0.5 256.702 444.231 0.514 0.5 258.691 447.676 0.514 0.5 260.058 450.045 0.513 0.5 261.73 452.94 0.513 0.5 263.158 455.415 0.513 0.5 264.965 458.545 0.513 0.5 266.307 460.87 0.512 0.5 268.269 464.27 0.512 0.5 270.118 467.472 0.512 0.5 271.638 470.104 0.511 0.5 273.399 473.157 0.511 0.5 275.032 475.985 0.511 0.5 276.277 478.141 0.511 0.5 278.345 481.724 0.51 0.5 280.132 484.82 0.51 0.5 281.85 487.797 0.51 0.5 283.558 490.755 0.509 0.5 285.816 494.666 0.509 0.5 287.01 496.734 0.509 0.5 289.161 500.46 0.508 0.5 290.569 502.9 0.508 0.5 291.98 505.344 0.508 0.5 293.882 508.64 0.507 0.5 295.453 511.362 0.507 0.5 297.305 514.569 0.507 0.5 298.853 517.251 0.506 0.5 300.807 520.636 0.506 0.5 302.33 523.275 0.506 0.5 304.156 526.438 0.506 0.5 305.491 528.751 0.505 0.5 307.523 532.27 0.505 0.5 308.735 534.371 0.505 0.5 310.051 536.651 0.504 0.5 311.237 538.705 0.504 0.5 312.562 541 0.504 0.5 314.474 544.313 0.504 0.5 316.76 548.272 0.503 0.5 318.111 550.613 0.503 0.5 319.799 553.537 0.503 0.5 321.225 556.008 0.502 0.5 323.109 559.271 0.502 0.5 325.113 562.743 0.502 0.5 326.604 565.327 0.502 0.5 327.767 567.341 0.501 0.5 329.707 570.701 0.501 0.5 331.862 574.435 0.501 0.5 333.463 577.208 0.5 0.5 335.064 579.982 0.5 0.5 336.491 580.38 1.697 0.5 338.278 580.38 3.484 0.5 339.687 580.381 4.893 0.5 341.473 580.381 6.679 0.5 343.002 580.381 8.208 0.5 344.743 580.382 9.948 0.5 346.317 580.382 11.522 0.5 348.036 580.382 13.241 0.5 349.584 580.383 14.789 0.5 351.858 580.383 17.062 0.5 353.661 580.383 18.866 0.5 354.997 580.384 20.202 0.5 356.419 580.384 21.623 0.5 358.171 580.384 23.374 0.5 360.405 580.385 25.609 0.5 362.296 580.385 27.5 0.5 364.088 580.385 29.291 0.5 366.252 580.386 31.455 0.5 367.624 580.386 32.826 0.5 369.882 580.386 35.085 0.5 371.118 580.387 36.32 0.5 373.265 580.387 38.467 0.5 374.718 580.387 39.92 0.5 376.469 580.388 41.671 0.5 377.685 580.388 42.886 0.5 379.208 580.388 44.41 0.5 380.701 580.389 45.902 0.5 382.679 580.389 47.88 0.5 384.887 580.389 50.088 0.5 386.383 580.39 51.584 0.5 387.963 580.39 53.163 0.5 389.97 580.39 55.171 0.5 391.527 580.391 56.727 0.5 392.956 580.391 58.156 0.5 395.094 580.391 60.294 0.5 396.399 580.392 61.598 0.5 398.316 580.392 63.515 0.5 400.058 580.392 65.257 0.5 402.164 580.393 67.363 0.5 403.404 580.393 68.602 0.5 404.99 580.393 70.189 0.5 406.145 580.393 71.344 0.5 407.822 580.394 73.021 0.5 408.984 580.394 74.182 0.5 411.112 580.394 76.31 0.5 412.392 580.395 77.59 0.5 414.392 580.395 79.59 0.5 416.175 580.395 81.372 0.5 418.467 580.396 83.664 0.5 420.621 580.396 85.818 0.5 422.356 580.397 87.553 0.5 423.819 580.397 89.016 0.5 425.894 580.397 91.091 0.5 427.641 580.398 92.837 0.5 428.952 580.398 94.148 0.5 430.564 580.398 95.76 0.5 432.669 580.399 97.864 0.5 434.154 580.399 99.35 0.5 436.246 580.399 101.441 0.5 438.419 580.4 103.614 0.5 439.819 580.4 105.014 0.5 441.783 580.4 106.977 0.5 443.844 295.947 273.268 0.5 446.099 290.667 278.571 0.5 447.885 286.483 282.772 0.5 449.166 283.481 285.787 0.5 450.953 279.297 289.989 0.5 452.848 279.8 291.594 0.5 454.075 280.579 292.371 0.5 456.197 281.926 293.716 0.5 457.683 282.87 294.657 0.5 459.217 283.844 295.629 0.5 460.897 284.91 296.693 0.5 462.789 286.111 297.891 0.5 464.6 287.261 299.038 0.5 466.707 288.598 300.373 0.5 468.903 289.992 301.764 0.5 470.965 291.301 303.07 0.5 472.832 292.487 304.253 0.5 474.027 293.245 305.01 0.5 475.721 294.321 306.083 0.5 477.535 295.473 307.233 0.5 478.842 296.302 308.06 0.5 480.838 297.569 309.325 0.5 482.621 580.39 147.821 0.5 484.326 580.39 149.526 0.5 485.504 580.39 150.704 0.5 487.175 580.391 152.375 0.5 488.895 580.391 154.095 0.5 491.003 580.391 156.202 0.5 493.282 580.391 158.482 0.5 494.532 580.391 159.731 0.5 495.814 580.392 161.014 0.5 497.165 580.392 162.365 0.5 498.64 580.392 163.839 0.5 499.974 580.392 165.173 0.5 501.307 580.392 166.506 0.5 502.718 580.392 167.917 0.5 504.759 580.393 169.958 0.5 506.295 580.393 171.494 0.5 507.981 580.393 173.18 0.5 509.803 580.393 175.002 0.5 511.361 580.393 176.56 0.5 512.73 580.394 177.929 0.5 514.961 580.394 180.159 0.5 516.178 580.394 181.376 0.5 518.438 580.394 183.636 0.5 520.506 580.394 185.704 0.5 522.797 580.395 187.995 0.5 524.961 580.395 190.159 0.5 526.577 580.395 191.774 0.5 527.845 580.395 193.043 0.5 529.713 580.395 194.91 0.5 531.481 580.396 196.678 0.5 533.743 580.396 198.94 0.5 535.704 580.396 200.901 0.5 537.766 580.396 202.962 0.5 539.577 580.397 204.774 0.5 540.944 580.397 206.14 0.5 543.208 580.397 208.404 0.5 544.592 580.397 209.788 0.5 545.852 580.397 211.048 0.5 547.872 580.398 213.068 0.5 549.145 580.398 214.341 0.5 550.567 580.398 215.763 0.5 552.026 580.398 217.222 0.5 554.133 580.398 219.329 0.5 555.511 580.398 220.707 0.5 556.769 580.399 221.964 0.5 558.61 580.399 223.805 0.5 560.713 580.399 225.908 0.5 562.631 580.399 227.827 0.5 564.797 580.4 229.992 0.5 566.276 580.4 231.471 0.5 568.533 580.4 233.728 0.5 570.029 580.4 235.224 0.5 572.043 580.4 237.238 0.5 573.647 580.401 238.842 0.5 575.392 580.401 240.587 0.5 576.897 580.401 242.091 0.5 578.929 580.401 244.123 0.5 580.277 580.401 245.471 2.577 580.5 580.401 246.893 5.458 580.499 580.402 248.555 8.76 580.499 580.402 250.462 11.267 580.499 580.402 251.909 14.692 580.499 580.402 253.886 18.196 580.498 580.403 255.908 20.38 580.498 580.403 257.169 22.529 580.498 580.403 258.409 25.008 580.497 580.403 259.84 28.902 580.497 580.403 262.088 32.276 580.497 580.403 264.035 34.697 580.496 580.404 265.433 38.604 580.496 580.404 267.688 42.498 580.496 580.404 269.935 45.084 580.495 580.404 271.428 47.102 580.495 580.404 272.593 50.611 580.495 580.405 274.618 53.874 580.494 580.405 276.502 57.596 580.494 580.405 278.65 60.041 580.494 580.405 280.061 63.753 580.493 580.406 282.204 66.4 580.493 580.406 283.732 69.252 580.493 580.406 285.378 73.182 580.492 580.406 287.647 75.959 580.492 580.406 289.25 78.015 580.492 580.407 290.436 80.871 580.492 580.407 292.085 84.378 580.491 580.407 294.109 88.311 580.491 580.407 296.379 92.26 580.49 580.407 298.659 96.254 580.49 580.408 300.964 100.107 580.49 580.408 303.188 103.332 580.489 580.408 305.049 106.298 580.489 580.408 306.761 109.048 580.489 580.409 308.349 111.477 580.488 580.409 309.751 115.405 580.488 580.409 312.018 118.775 580.488 580.409 313.963 121.027 580.487 580.409 315.263 124.521 580.487 580.41 317.28 126.815 580.487 580.41 318.604 129.083 580.487 580.41 319.913 131.653 580.486 580.41 321.396 134.207 580.486 580.41 322.87 136.69 580.486 580.41 324.304 140.373 580.485 580.411 326.43 142.586 580.485 580.411 327.707 146.39 580.485 580.411 329.902 149.858 580.485 580.411 331.905 153.365 580.484 580.412 333.929 156.514 580.484 580.412 335.746 158.645 580.484 580.412 336.977 162.375 580.483 580.412 339.13 164.814 580.483 580.412 340.537 167.456 580.483 580.412 342.062 169.694 580.482 580.413 343.354 172.258 580.482 580.413 344.834 175.198 580.482 580.413 346.531 177.418 580.482 580.413 347.812 179.867 580.481 580.413 349.226 183.669 580.481 580.414 351.421 186.951 580.481 580.414 353.315 190.052 580.48 580.414 355.105 193.818 580.48 580.414 357.278 196.582 580.48 580.414 358.874 199.323 580.479 580.415 360.456 201.706 580.479 580.415 361.831 205.426 580.479 580.415 363.978 207.681 580.479 580.415 365.28 210.704 580.478 580.415 367.025 213.995 580.478 580.416 368.925 217.615 580.477 580.416 371.014 220.029 580.477 580.416 372.408 223.97 580.477 580.416 374.682 227.807 580.476 580.416 376.897 230.512 580.476 580.417 378.459 232.745 580.476 580.417 379.747 235.204 580.476 580.417 381.167 238.358 580.475 580.417 382.988 242.174 580.475 580.417 385.19 245.73 580.475 580.418 387.242 248.85 580.474 580.418 389.043 252.709 580.474 580.418 391.271 254.817 580.474 580.418 392.488 258.19 580.473 580.419 394.434 261.134 580.473 580.419 396.134 264.864 580.473 580.419 398.287 268.266 580.472 580.419 400.251 271.482 580.472 580.419 402.107 274.34 580.472 580.42 403.757 277.366 580.471 580.42 405.503 281.067 580.471 580.42 407.639 284.545 580.471 580.42 409.647 287.253 580.47 580.42 411.21 290.004 580.47 580.421 412.798 292.473 580.47 580.421 414.223 295.925 580.469 580.421 416.216 299.854 580.469 580.421 418.484 302.044 580.469 580.421 419.747 305.252 580.468 580.422 421.599 308.18 580.468 580.422 423.289 311.108 580.468 580.422 424.979 314.109 580.467 580.422 426.711 318.018 580.467 580.422 428.968 320.15 580.467 580.423 430.199 323.394 580.466 580.423 432.071 325.606 580.466 580.423 433.348 328.546 580.466 580.423 435.045 332.39 580.466 580.423 437.263 335.937 580.465 580.424 439.311 339.347 580.465 580.424 441.279 342.269 580.465 580.424 442.965 344.751 580.464 580.424 444.398 348.298 580.464 580.424 446.445 350.732 580.464 580.425 447.85 352.906 580.463 580.425 449.105 354.906 580.463 580.425 450.26 357.755 580.463 580.425 451.905 360.665 580.463 580.425 453.584 362.938 580.462 580.425 454.896 366.308 580.462 580.426 456.841 369.17 580.462 580.426 458.493 373.073 580.461 580.426 460.746 376.366 580.461 580.426 462.647 379.859 580.461 580.427 464.663 382.632 580.46 580.427 466.264 385.667 580.46 580.427 468.015 388.97 580.46 580.427 469.922 391.314 580.459 580.427 471.275 395.003 580.459 580.428 473.404 398.354 580.459 580.428 475.338 402.014 580.458 580.428 477.451 404.164 580.458 580.428 478.692 408.151 580.458 580.428 480.994 411.423 580.457 580.429 482.882 414.107 580.457 580.429 484.431 417.534 580.457 580.429 486.409 421.48 580.456 580.429 488.687 425.403 580.456 580.43 490.951 428.659 580.456 580.43 492.831 432.354 580.455 580.43 494.963 435.063 580.455 580.43 496.527 438.228 580.455 580.43 498.354 441.155 580.454 580.431 500.043 444.806 580.454 580.431 502.151 448.471 580.454 580.431 504.266 451.118 580.453 580.431 505.794 453.182 580.453 580.431 506.985 455.846 580.453 580.432 508.523 459.12 580.452 580.432 510.413 462.285 580.452 580.432 512.24 464.926 580.452 580.432 513.764 467.273 580.452 580.432 515.119 470.713 580.451 580.433 517.105 473.385 580.451 580.433 518.647 476.58 580.451 580.433 520.491 478.65 580.45 580.433 521.686 481.107 580.45 580.433 523.104 483.337 580.45 580.433 524.391 485.877 580.45 580.434 525.857 489.063 580.449 580.434 527.696 491.683 580.449 580.434 529.209 493.914 580.449 580.434 530.496 497.694 580.448 580.434 532.678 501.507 580.448 580.435 534.879 505.05 580.448 580.435 536.924 507.23 580.447 580.435 538.183 510.431 580.447 580.435 540.03 513.397 580.447 580.435 541.742 516.652 580.446 580.436 543.621 519.03 580.446 580.436 544.993 522.624 580.446 580.436 547.068 526.474 580.445 580.436 549.29 528.619 580.445 580.437 550.528 531.413 580.445 580.437 552.141 533.986 580.445 580.437 553.626 537.136 580.444 580.437 555.444 540.928 580.444 580.437 557.633 544.386 580.444 580.438 559.629 547.835 580.443 580.438 561.62 549.934 580.443 580.438 562.831 553.713 580.443 580.438 565.013 557.38 580.442 580.438 567.13 560.612 580.442 580.439 568.995 562.771 580.442 580.439 570.241 565.289 580.441 580.439 571.695 567.628 580.441 580.439 573.045 570.941 580.441 580.439 574.957 574.058 580.44 580.44 576.756 577.237 580.44 580.44 578.591 579.94 580.44 580.44 580.151"/></svg>