<svg id="Layer_1" data-name="Layer 1" xmlns="http://www.w3.org/2000/svg" viewBox="0 0 90 81"><defs><style>.cls-1{fill:#f44336;}.cls-2{fill:#616161;}.cls-3{fill:#fffffe;}.cls-4{fill:#d32f2f;}</style></defs><title>heart</title><polygon class="cls-1" points="72 18 72 9 54 9 54 18 36 18 36 9 18 9 18 18 9 18 9 45 18 45 18 54 27 54 27 63 36 63 36 72 45 72 54 72 54 63 63 63 63 54 72 54 72 45 81 45 81 18 72 18"/><rect class="cls-2" x="18" width="18" height="9"/><rect class="cls-2" x="9" y="9" width="9" height="9"/><rect class="cls-2" y="18" width="9" height="27"/><rect class="cls-2" x="9" y="45" width="9" height="9"/><rect class="cls-2" x="18" y="54" width="9" height="9"/><rect class="cls-2" x="27" y="63" width="9" height="9"/><rect class="cls-2" x="36" y="72" width="18" height="9"/><rect class="cls-2" x="54" y="63" width="9" height="9"/><rect class="cls-2" x="63" y="54" width="9" height="9"/><rect class="cls-2" x="72" y="45" width="9" height="9"/><rect class="cls-2" x="81" y="18" width="9" height="27"/><rect class="cls-2" x="72" y="9" width="9" height="9"/><rect class="cls-2" x="54" width="18" height="9"/><rect class="cls-2" x="36" y="9" width="18" height="9"/><rect class="cls-3" x="63" y="18" width="9" height="9"/><rect class="cls-4" x="9" y="18" width="9" height="27"/><rect class="cls-4" x="18" y="45" width="9" height="9"/><rect class="cls-4" x="27" y="54" width="9" height="9"/><rect class="cls-4" x="36" y="63" width="9" height="9"/></svg>