<svg id="Layer_1" data-name="Layer 1" xmlns="http://www.w3.org/2000/svg" viewBox="0 0 73.70388 73.50761"><defs><style>.cls-1{fill:#616161;}</style></defs><title>logo</title><path class="cls-1" d="M146.07979,91.205c.11821.0594.25586.13418.3703.19633a6.78,6.78,0,0,0,3.3569,1.00735,8.17454,8.17454,0,0,0,3.06684-.53571,4.29622,4.29622,0,0,1,1.74015-.30929,3.833,3.833,0,0,1,1.68169.32935,7.66839,7.66839,0,0,0,3.122.59768,8.77306,8.77306,0,0,0,3.00514-.47492,4.90013,4.90013,0,0,1,1.79437-.28725,8.64957,8.64957,0,0,1,2.01192.199,14.22925,14.22925,0,0,0,5.577-.00216,8.5874,8.5874,0,0,1,2.01012-.20019,6.69128,6.69128,0,0,1,1.92123.23775,10.61988,10.61988,0,0,0,2.87891.35409,17.52128,17.52128,0,0,0,2.6654-.1783,13.54658,13.54658,0,0,1,2.13475-.143,16.32747,16.32747,0,0,1,2.17481.12273,20.403,20.403,0,0,0,2.62326.14794c1.128,0,1.676.03894,2.25613.08015.62421.04433,1.26969.09018,2.53955.09018a21.47084,21.47084,0,0,0,2.61141-.13921,17.5637,17.5637,0,0,1,2.18719-.11666,12.93759,12.93759,0,0,0,2.77059-.26306,9.12755,9.12755,0,0,1,2.02348-.19266,13.49216,13.49216,0,0,1,2.13318.14332,17.463,17.463,0,0,0,2.6656.17892,17.43907,17.43907,0,0,1,2.18622.1174,21.34531,21.34531,0,0,0,2.61327.14025,6.91792,6.91792,0,0,0,3.079-.77848c.0802-.03729.17464-.08121.2601-.119l.02492.02459c.04042.04051.07306.07559.09915.10524-.03776.10348-.08918.23113-.13131.33567a7.43489,7.43489,0,0,0-.64884,2.93378,10.386,10.386,0,0,0,.367,2.89613,6.47006,6.47006,0,0,1,.24381,1.91086,3.49022,3.49022,0,0,1-.34456,1.63831,7.3365,7.3365,0,0,0-.64751,3.16539,8.12122,8.12122,0,0,0,.53989,3.06761,4.24769,4.24769,0,0,1,.31027,1.7319,16.16713,16.16713,0,0,1-.12378,2.17315,20.23575,20.23575,0,0,0-.14946,2.6257,13.14472,13.14472,0,0,1-.14641,2.12758,17.103,17.103,0,0,0-.18371,2.67266,15.81887,15.81887,0,0,0,.20272,2.69748,11.90357,11.90357,0,0,1,.15825,2.10265,18.39048,18.39048,0,0,0,.16794,2.65151,14.38473,14.38473,0,0,1,.13622,2.14864,6.83367,6.83367,0,0,1-.23426,1.9284,10.63859,10.63859,0,0,0-.3466,2.86967,21.09264,21.09264,0,0,0,.142,2.614,17.19446,17.19446,0,0,1,.11859,2.18171c0,1.15624-.0244,1.71789-.05022,2.3125-.02655.61112-.054,1.243-.054,2.4861a9.63455,9.63455,0,0,1-.18519,2.0403,13.46526,13.46526,0,0,0-.24933,2.75377,13.97141,13.97141,0,0,0,.23791,2.74169,10.12193,10.12193,0,0,1,.17891,2.05709c0,1.14792-.029,1.70554-.05967,2.2959-.032.6154-.06508,1.25176-.06508,2.50359a7.34793,7.34793,0,0,0,.64145,2.912c.03637.09014.0801.19849.11473.29094-.02591.029-.05764.06273-.09624.10126l-.04625.04505c-.07956-.03421-.16655-.07338-.24077-.10682a6.96255,6.96255,0,0,0-3.02792-.73873c-1.14154,0-1.69609-.03342-2.28319-.06881-.62038-.03737-1.26186-.076-2.5238-.076l-2.40313.00078-2.40057.00074a25.69646,25.69646,0,0,0-2.57222.11132,21.99437,21.99437,0,0,1-2.22729.0964c-1.12006,0-1.66422-.04341-2.24034-.08938-.62885-.05019-1.27913-.10207-2.55851-.10207a8.01614,8.01614,0,0,0-3.07945.55228,4.15077,4.15077,0,0,1-1.72078.31448,17.44143,17.44143,0,0,1-2.18655-.11742,24.49542,24.49542,0,0,0-5.22568-.00108,17.57529,17.57529,0,0,1-2.18806.11667,7.18722,7.18722,0,0,1-1.94735-.22643,11.01147,11.01147,0,0,0-2.85072-.32977,12.23388,12.23388,0,0,0-2.79665.28412,8.3522,8.3522,0,0,1-1.999.20381,19.79813,19.79813,0,0,1-2.20929-.10547,23.48022,23.48022,0,0,0-2.58931-.12355c-1.14545,0-1.70186-.02955-2.291-.06083-.61529-.0327-1.25151-.06649-2.50311-.06649a21.09942,21.09942,0,0,0-2.61554.14215,17.2037,17.2037,0,0,1-2.18324.1187,5.4962,5.4962,0,0,1-1.84533-.2678,9.41524,9.41524,0,0,0-2.95416-.42455,6.67835,6.67835,0,0,0-3.0867.80246c-.05449.02638-.11627.0563-.17641.0847l-.00343-.00342a3.17964,3.17964,0,0,1-.22481-.2463c.04432-.12468.11089-.29.16449-.42316a11.761,11.761,0,0,0,.685-2.17047,6.0235,6.0235,0,0,0-.27332-3.67246,3.96509,3.96509,0,0,1-.3-1.572,6.53946,6.53946,0,0,1,.24176-1.91371,10.45911,10.45911,0,0,0,.36272-2.89,14.083,14.083,0,0,0-.23549-2.739,10.232,10.232,0,0,1-.17754-2.06054c0-1.17076.01646-1.73946.03389-2.34154.01749-.60405.03557-1.22865.03557-2.45731,0-1.13481.036-1.68611.07411-2.26979.04063-.622.08263-1.26513.08263-2.53044a21.80341,21.80341,0,0,1,.09715-2.2262,25.50578,25.50578,0,0,0,.11229-2.57394,16.8498,16.8498,0,0,0-.18717-2.67715,12.90324,12.90324,0,0,1-.14859-2.123,24.24256,24.24256,0,0,0-.119-2.5826,20.55823,20.55823,0,0,1-.10211-2.21549,4.68541,4.68541,0,0,1,.29449-1.7722,8.54277,8.54277,0,0,0,.49521-3.02347,14.06472,14.06472,0,0,0-.23582-2.739,10.21344,10.21344,0,0,1-.17771-2.05961c0-1.18383.00869-1.77576.01737-2.36768.00892-.6066.01782-1.21319.01782-2.4264a15.77468,15.77468,0,0,0-.20331-2.69764,11.86211,11.86211,0,0,1-.15858-2.10111c0-1.13153.03761-1.68123.07745-2.26321.04267-.62342.08678-1.26806.08678-2.53629a7.90323,7.90323,0,0,0-.6414-2.97211c-.06937-.18175-.15891-.41638-.19906-.561.014-.01719.03139-.03741.05271-.06063m-.12218-2.08932a1.72814,1.72814,0,0,0-1.23039.611c-1.69808,1.69516.14032,2.67263.14032,5.072,0,2.39974-.16423,2.39974-.16423,4.7995,0,2.39938.36189,2.39938.36189,4.79875,0,2.397-.03519,2.397-.03519,4.79408,0,2.39931.41353,2.39931.41353,4.79861,0,2.39785-.7897,2.39785-.7897,4.79567,0,2.399.22111,2.399.22111,4.79809,0,2.40007.33576,2.40007.33576,4.80014s-.20944,2.40007-.20944,4.80014-.15674,2.40012-.15674,4.80023c0,2.39943-.06946,2.39943-.06946,4.79885,0,2.39976.413,2.39976.413,4.79951,0,2.40186-.60448,2.40186-.60448,4.8037,0,2.4035,1.091,2.49138.61323,4.84692-.49762,2.45349-1.77813,2.94948-.08006,4.65047a1.85436,1.85436,0,0,0,1.29976.68477c.9077,0,1.6991-.98151,3.3822-.98151,2.39975,0,2.39975.69235,4.79949.69235,2.39939,0,2.39939-.26085,4.79878-.26085,2.397,0,2.397.12732,4.79407.12732,2.39929,0,2.39929.229,4.7986.229,2.39784,0,2.39784-.48793,4.79568-.48793,2.399,0,2.399.5562,4.79807.5562,2.40008,0,2.40008-.25588,4.80015-.25588s2.40007.25771,4.80014.25771,2.40012-.86676,4.80023-.86676c2.39943,0,2.39943.19145,4.79885.19145,2.39976,0,2.39976-.20772,4.79951-.20772,2.40186,0,2.40186-.00152,4.8037-.00152,2.4035,0,2.4035.14484,4.807.14484,1.66488,0,2.47578.91844,3.38223.91844a1.91318,1.91318,0,0,0,1.34572-.7025c1.69807-1.69516-.073-2.32021-.073-4.71959,0-2.39975.12475-2.39975.12475-4.79949,0-2.39939-.41682-2.39939-.41682-4.79878,0-2.397.43452-2.397.43452-4.79407,0-2.39929.10422-2.39929.10422-4.7986,0-2.39784-.26062-2.39784-.26062-4.79568,0-2.399.58086-2.399.58086-4.79807,0-2.40008-.30416-2.40008-.30416-4.80015s-.361-2.40008-.361-4.80015.33012-2.40011.33012-4.80022c0-2.39942.27324-2.39942.27324-4.79885,0-2.39975-.85016-2.39975-.85016-4.79951,0-2.40186.99207-2.40186.99207-4.8037,0-2.40349-.61083-2.40349-.61083-4.807s1.7945-3.0867.09642-4.78769a1.87635,1.87635,0,0,0-1.32521-.6871c-.93446-.00005-1.77386.973-3.45419.973-2.39975,0-2.39975-.25765-4.79949-.25765-2.39939,0-2.39939-.32224-4.79878-.32224-2.397,0-2.397.45572-4.79407.45572-2.39929,0-2.39929.25587-4.7986.25587-2.39784,0-2.39784-.17033-4.79568-.17033-2.399,0-2.399-.27067-4.79807-.27067-2.40008,0-2.40008.32125-4.80015.32125s-2.40007-.59184-4.80014-.59184-2.40012.47718-4.80023.47718c-2.39943,0-2.39943-.47387-4.79885-.47387-2.39976,0-2.39976.76217-4.79951.76217-2.40186,0-2.40186-.927-4.8037-.927-2.4035,0-2.4035.845-4.807.845-1.77153,0-2.76718-1.293-3.84938-1.293Z" transform="translate(-144.00726 -89.11572)"/><path class="cls-1" d="M177.616,92.22206c.49617,0,1.01137.02966,1.55681.06107.58786.03385,1.19574.06885,1.82719.06885a33.88781,33.88781,0,0,1,4.388.34593,32.88249,32.88249,0,0,1,4.32146.80616,20.27418,20.27418,0,0,0,2.07173.40789,10.57,10.57,0,0,1,2.28973.53116l.54352.2243A29.46828,29.46828,0,0,1,198.14575,96.3a28.35071,28.35071,0,0,1,3.07988,2.18155l.55789.43114a19.58035,19.58035,0,0,1,2.18233,2.0866c.33069.34908.66127.69772.99971,1.03616a33.82142,33.82142,0,0,1,2.89128,3.35988,18.849,18.849,0,0,0,1.43636,1.6084,10.18563,10.18563,0,0,1,1.5029,1.7962,8.37787,8.37787,0,0,1,.68861,2.06144,15.29134,15.29134,0,0,0,.68,2.23109,33.17165,33.17165,0,0,1,1.40126,4.17943c.174.651.393,1.26466.60469,1.85807a12.18572,12.18572,0,0,1,.6869,2.40946,17.62469,17.62469,0,0,1,.042,2.84767c-.01965.536-.03894,1.07416-.03894,1.61287,0,.48429.01233.96766.02483,1.44919a19.79942,19.79942,0,0,1-.0678,3.00607c-.0704.54-.1205,1.08653-.17006,1.63285a17.259,17.259,0,0,1-.40548,2.82082,29.18516,29.18516,0,0,1-1.33,3.60672l-.25.599a7.45175,7.45175,0,0,1-1.20787,1.71141,13.61726,13.61726,0,0,0-1.43,1.92878l-.26856.46568a29.12249,29.12249,0,0,1-2.06706,3.25668c-.34976.45514-.67072.91388-.98113,1.35752a16.13892,16.13892,0,0,1-1.70295,2.17094,34.75394,34.75394,0,0,1-3.30608,2.97334c-.45346.34844-.88541.71244-1.30313,1.06447a16.3827,16.3827,0,0,1-2.23479,1.6844,16.11992,16.11992,0,0,1-2.55209,1.08345c-.52063.18824-1.059.38289-1.59631.6057a33.85316,33.85316,0,0,1-4.21088,1.42272,12.9894,12.9894,0,0,1-2.50493.30424c-.61438.03664-1.24965.07451-1.9079.16034A33.69933,33.69933,0,0,1,181,159.56943c-.729,0-1.41692.0655-2.08218.12886-.58637.05585-1.14022.10859-1.65551.10859a5.47524,5.47524,0,0,1-.7107-.04171,18.18022,18.18022,0,0,1-2.85474-.70439c-.48169-.14583-.96225-.29094-1.44508-.42-.703-.1879-1.3899-.30088-2.05422-.41014a10.93448,10.93448,0,0,1-2.32158-.54575,8.587,8.587,0,0,1-1.83377-1.22711,15.56474,15.56474,0,0,0-1.8607-1.32338,33.77125,33.77125,0,0,1-3.71158-2.37691,16.20855,16.20855,0,0,0-1.92241-1.21972,8.89453,8.89453,0,0,1-1.84245-1.2439,22.47572,22.47572,0,0,1-2.05077-2.51373c-.248-.33443-.49533-.66787-.74644-.99466a34.468,34.468,0,0,1-2.50251-3.702,21.12577,21.12577,0,0,1-1.28269-2.86889c-.16005-.4093-.32027-.81867-.48827-1.22381-.17363-.41872-.35814-.83577-.54338-1.254a20.188,20.188,0,0,1-1.112-2.88715,10.32961,10.32961,0,0,1-.21563-2.31531,19.752,19.752,0,0,0-.12891-2.138,12.75222,12.75222,0,0,0-.60608-2.36052A7.22838,7.22838,0,0,1,146.552,126a25.66537,25.66537,0,0,1,.332-3.47537c.04731-.3361.09428-.66995.13743-1.00085a9.93855,9.93855,0,0,1,.69879-2.22713,18.24639,18.24639,0,0,0,.70964-2.02595,33.67831,33.67831,0,0,1,1.46129-4.15585,12.91171,12.91171,0,0,0,.6624-2.40283,7.02754,7.02754,0,0,1,.57874-1.95485,14.02589,14.02589,0,0,1,1.61719-2.08118c.39915-.45526.8119-.926,1.20011-1.43118a12.25014,12.25014,0,0,1,1.78652-1.72781c.483-.41078.98253-.83554,1.46451-1.3175q.30114-.30111.59822-.60331a26.2884,26.2884,0,0,1,2.61691-2.42656,33.53164,33.53164,0,0,1,3.67758-2.45864,33.15085,33.15085,0,0,1,3.98436-1.91147c.58249-.24153,1.13352-.51264,1.6664-.77484a13.767,13.767,0,0,1,2.41521-1.01212,29.49365,29.49365,0,0,1,3.83366-.65724l.56479-.07275a8.18444,8.18444,0,0,1,1.05829-.0605m-.0002-2a10.16856,10.16856,0,0,0-1.31667.07729,36.1793,36.1793,0,0,0-4.65632.781,35.67394,35.67394,0,0,0-4.33124,1.87167,29.91144,29.91144,0,0,0-11.52519,7.83321,36.37832,36.37832,0,0,0-3.42264,3.24086,36.89062,36.89062,0,0,0-2.9626,3.72942c-.78359,1.35422-.7527,3.1348-1.35748,4.59318a35.06779,35.06779,0,0,0-1.546,4.4055c-.4019,1.5036-1.2542,2.93661-1.45947,4.511A36.85344,36.85344,0,0,0,144.552,126c0,1.593.89868,3.11663,1.09928,4.655.20527,1.57427-.00631,3.20765.39558,4.71117a35.78408,35.78408,0,0,0,1.74011,4.39075,36.20418,36.20418,0,0,0,1.88728,4.32817,36.36979,36.36979,0,0,0,2.64776,3.919,36.8383,36.8383,0,0,0,2.96885,3.704c1.11025,1.11027,2.71346,1.677,3.96042,2.63527a35.47,35.47,0,0,0,3.92862,2.52218c1.35423.78357,2.4716,2.06206,3.93,2.66684a36.80935,36.80935,0,0,0,4.62549,1.04062,35.53049,35.53049,0,0,0,4.55766,1.17543,7.485,7.485,0,0,0,.96932.0585c1.22839,0,2.47768-.23745,3.73767-.23745a35.53276,35.53276,0,0,0,4.647-.282,36.2614,36.2614,0,0,0,4.6707-.51563,35.71218,35.71218,0,0,0,4.46051-1.50743,36.59618,36.59618,0,0,0,4.38391-1.80548,36.53567,36.53567,0,0,0,3.75494-2.89414,36.15343,36.15343,0,0,0,3.50167-3.145,36.05109,36.05109,0,0,0,2.85569-3.724,35.29108,35.29108,0,0,0,2.48093-3.93943c.78357-1.35423,2.14946-2.41731,2.75424-3.87568a36.32725,36.32725,0,0,0,1.66475-4.45533A39.62229,39.62229,0,0,0,216.86067,126a37.00114,37.00114,0,0,0-.01988-4.71912,35.64342,35.64342,0,0,0-1.34264-4.52541,35.16815,35.16815,0,0,0-1.486-4.42905c-.60471-1.45828-.7015-3.17389-1.485-4.528-.78888-1.36353-2.12945-2.37876-3.0845-3.62163a35.95474,35.95474,0,0,0-3.06291-3.55544,31.16209,31.16209,0,0,0-7.23244-6.05239,36.41543,36.41543,0,0,0-4.31032-1.97324,36.56255,36.56255,0,0,0-4.61111-1.02379,35.1133,35.1133,0,0,0-4.57933-.8572A35.4918,35.4918,0,0,0,181,90.352c-1.1411,0-2.27-.12993-3.3842-.12992Z" transform="translate(-144.00726 -89.11572)"/><path class="cls-1" d="M152.1281,109.21581a9.05258,9.05258,0,0,0,2.49829.382,6.14484,6.14484,0,0,1,1.88875.25172,10.03956,10.03956,0,0,0,2.91455.38548c1.179,0,1.76851.01237,2.358.02475.6105.01282,1.221.02564,2.442.02564,1.17184,0,1.75778.01589,2.34368.03178.61306.01663,1.22608.03326,2.45215.03326a8.2519,8.2519,0,0,0,3.05132-.5245,4.36774,4.36774,0,0,1,1.744-.30479,14.2137,14.2137,0,0,1,2.144.13734,18.21222,18.21222,0,0,0,2.65235.16973,6.34817,6.34817,0,0,1,1.89912.24574,10.25509,10.25509,0,0,0,2.89733.37229,8.94271,8.94271,0,0,0,2.989-.45993,5.05662,5.05662,0,0,1,1.80751-.28148c1.11992,0,1.664.04288,2.24007.08828.62783.04948,1.277.10064,2.55432.10064,1.13711,0,1.68951.03367,2.27436.06929.61884.03772,1.25876.0767,2.51764.0767a23.1221,23.1221,0,0,0,2.59052-.12559,19.44216,19.44216,0,0,1,2.20439-.10693c1.11964,0,1.66362.04248,2.23953.08744.627.04895,1.27532.09958,2.55086.09958a6.3703,6.3703,0,0,0,1.12149-.09954,5.636,5.636,0,0,0-.80083,1.0685c-.59533,1.03119-.89828,1.54369-1.20123,2.05623-.30813.52129-.61629,1.04261-1.2218,2.09138a15.82994,15.82994,0,0,0-1.17323,2.43712,11.91989,11.91989,0,0,1-.91455,1.90025,13.30966,13.30966,0,0,1-1.18967,1.77112,17.27243,17.27243,0,0,0-1.49056,2.21937c-.60818,1.05338-.903,1.58543-1.19786,2.11748-.28634.51671-.57267,1.0334-1.16333,2.05644-.641,1.1102-.92,1.70148-1.18977,2.27329-.2459.52113-.47816,1.01338-1.03636,1.9802a14.07744,14.07744,0,0,1-1.1909,1.78585,18.0637,18.0637,0,0,0-1.47574,2.21321l-1.19922,2.07313-1.20253,2.07888a10.59539,10.59539,0,0,0-1.13149,2.66873,6.66678,6.66678,0,0,1-.75291,1.77957c-.61495,1.06512-.91031,1.61655-1.19594,2.14983-.28331.52893-.55093,1.02853-1.134,2.03848a13.02133,13.02133,0,0,1-1.189,1.765,16.97582,16.97582,0,0,0-1.49631,2.22156,23.33259,23.33259,0,0,0-1.1857,2.30178,19.65126,19.65126,0,0,1-1.01054,1.96184,7.66444,7.66444,0,0,0-.89478,2.66129c-.01829-.101-.03586-.20269-.05169-.29436a16.62242,16.62242,0,0,0-.43039-1.95641,7.69211,7.69211,0,0,0-1.63221-3.155,9.55487,9.55487,0,0,1-.97128-1.39322c-.59669-1.03352-.89171-1.55228-1.18671-2.071-.29826-.52449-.59649-1.0489-1.19983-2.0939a12.03323,12.03323,0,0,1-.91613-1.90007,15.95138,15.95138,0,0,0-1.17281-2.43181,9.52332,9.52332,0,0,0-1.83252-2.34128,5.59612,5.59612,0,0,1-1.1546-1.47125,5.92388,5.92388,0,0,1-.717-1.752,9.87515,9.87515,0,0,0-1.11918-2.72661c-.58957-1.02117-.87407-1.53763-1.15858-2.05414-.29417-.534-.58838-1.06812-1.198-2.124-.63348-1.09721-.99338-1.63307-1.34143-2.15129-.32515-.48415-.63229-.94145-1.19795-1.92123a10.2732,10.2732,0,0,1-.87683-1.872,14.12566,14.12566,0,0,0-1.16478-2.48558,20.77042,20.77042,0,0,0-1.433-2.19306,16.87206,16.87206,0,0,1-1.19238-1.8247c-.62874-1.089-.98088-1.62379-1.32144-2.141-.323-.49055-.6281-.9539-1.19813-1.94123-.63844-1.10583-1.00758-1.64213-1.36454-2.16076-.3272-.47536-.63622-.92437-1.19541-1.89289a7.68783,7.68783,0,0,0-1.71023-2.00074m-.53183-2.133c-.5125,0-.9514.25143-1.447,1.10627-1.20208,2.07335.75872,1.95192,1.957,4.02745,1.19763,2.07435,1.36232,1.97929,2.56,4.05365,1.19876,2.07633,1.3208,2.00586,2.51956,4.08219,1.198,2.07508,1.42734,1.94268,2.62538,4.01776,1.19864,2.07609.843,2.28143,2.04161,4.35753,1.19915,2.077,1.34023,1.99554,2.53939,4.07254s1.15739,2.1011,2.35655,4.1781.637,2.40161,1.83613,4.47865c1.19883,2.07643,1.78829,1.7361,2.98713,3.81253,1.199,2.07672.88995,2.25516,2.08894,4.33188,1.2,2.07852,1.18651,2.08633,2.38655,4.16487,1.20085,2.08,1.73851,1.80934,2.417,4.11324.72974,2.478.13411,3.95718,2.53583,3.96162h.0085c2.38573,0,1.28619-1.864,2.48311-3.93715,1.19763-2.07435.99862-2.18927,2.19626-4.26362,1.19876-2.07633,1.48651-1.91021,2.68527-3.98653,1.198-2.07507,1.13191-2.11325,2.32995-4.18831,1.19864-2.0761.68576-2.37221,1.8844-4.4483,1.19916-2.077,1.20259-2.075,2.40175-4.152s1.46749-1.92206,2.66664-3.99906,1.027-2.17646,2.22614-4.25349c1.19882-2.07643,1.16235-2.09748,2.36117-4.17392,1.199-2.07672,1.48125-1.91378,2.68024-3.99049,1.2-2.07852.88774-2.25883,2.08779-4.33737,1.20086-2.07995,1.22216-2.06765,2.423-4.14761s3.84479-1.82664,2.64706-3.90841c-.4064-.70637-.80264-.93954-1.24266-.93958-.85452-.00009-1.87451.879-3.45712.879-2.39519,0-2.39519-.187-4.79039-.187-2.39746,0-2.39746.23252-4.79491.23252-2.396,0-2.396-.146-4.792-.146-2.39719,0-2.39719-.18892-4.79439-.18892-2.39823,0-2.39823.74141-4.79646.74141s-2.39823-.618-4.79645-.618-2.39856-.30707-4.79639-.30707h-.00015c-2.39758,0-2.39758.82929-4.79517.82929-2.39792,0-2.39792-.065-4.79583-.065-2.4,0-2.4-.05039-4.8-.05039-2.40166,0-2.40166-.6372-4.8033-.6372a26.90167,26.90167,0,0,1-3.03012-.515Z" transform="translate(-144.00726 -89.11572)"/></svg>